<svg width="128" height="128" viewBox="0 0 128 128" fill="none" xmlns="http://www.w3.org/2000/svg">
<rect x="2" y="2" width="123" height="123" rx="31" fill="#2C2C2C"/>
<path d="M31.2869 79.4081L20.5502 66.995V79.4081H16V51.6682H20.5502V64.3207L31.3268 51.6682H37.0345L24.9805 65.558L37.234 79.4081H31.2869Z" fill="white"/>
<path d="M69.4281 84.7266L67.6952 83.016C66.22 84.3389 64.4182 85.0003 62.2896 85.0003C61.1188 85.0003 60.0848 84.8026 59.1877 84.4073C58.3058 83.9968 57.6216 83.4266 57.135 82.6968C56.6484 81.9517 56.4052 81.0926 56.4052 80.1194C56.4052 79.0703 56.7017 78.1276 57.2947 77.2913C57.8877 76.455 58.762 75.7784 59.9176 75.2614C59.507 74.7596 59.2105 74.2807 59.0281 73.8245C58.8456 73.3532 58.7544 72.8514 58.7544 72.3192C58.7544 71.5894 58.9444 70.9355 59.3246 70.3578C59.7047 69.7648 60.2444 69.301 60.9439 68.9665C61.6585 68.632 62.4872 68.4647 63.4299 68.4647C64.388 68.4647 65.2092 68.6471 65.8934 69.0121C66.5776 69.377 67.0868 69.8636 67.4212 70.4718C67.7556 71.08 67.9003 71.7566 67.8546 72.5017H64.7526C64.768 71.9999 64.6465 71.6198 64.388 71.3613C64.1295 71.0876 63.7797 70.9507 63.3385 70.9507C62.913 70.9507 62.5556 71.08 62.2667 71.3385C61.993 71.5817 61.8562 71.9011 61.8562 72.2964C61.8562 72.6765 61.9702 73.0567 62.1983 73.4368C62.4264 73.8017 62.7989 74.2579 63.3161 74.8052L67.3299 78.7738C67.3608 78.7434 67.3833 78.713 67.3987 78.6826C67.4135 78.6522 67.4289 78.6217 67.4444 78.5913L68.7439 76.4246H72.0743L70.4776 79.2299C70.1734 79.8229 69.8468 80.3855 69.497 80.9177L73.3513 84.7266H69.4281ZM62.3808 82.3546C63.6279 82.3546 64.7301 81.9137 65.6882 81.0318L61.765 77.1544C60.2901 77.8083 59.5526 78.7357 59.5526 79.937C59.5526 80.6212 59.8111 81.199 60.3281 81.6704C60.8451 82.1265 61.5293 82.3546 62.3808 82.3546Z" fill="white"/>
<path d="M86.8272 73.0478V57.8022C86.8272 55.4869 85.7483 53.3038 83.9093 51.8973L69.0425 40.5286C66.3774 38.4905 62.6768 38.4905 60.0116 40.5286L45.1447 51.8973C43.3056 53.3038 42.2268 55.4869 42.2268 57.8022V73.0478C42.2268 77.1531 45.5548 80.4811 49.6602 80.4811H52.3858C53.6173 80.4811 54.6158 79.4827 54.6158 78.2511V77.7555C54.6158 76.5239 53.6173 75.5255 52.3858 75.5255H49.6602C48.2917 75.5255 47.1824 74.4162 47.1824 73.0478V57.8022C47.1824 57.0304 47.542 56.3027 48.155 55.8339L63.0217 44.4651C63.9103 43.7858 65.1439 43.7858 66.0318 44.4651L80.8992 55.8339C81.5118 56.3027 81.8714 57.0304 81.8714 57.8022V73.0478C81.8714 74.4162 80.7623 75.5255 79.3939 75.5255H76.6683C75.4362 75.5255 74.438 76.5239 74.438 77.7555V78.2511C74.438 79.4827 75.4362 80.4811 76.6683 80.4811H79.3939C83.499 80.4811 86.8272 77.1531 86.8272 73.0478Z" fill="white"/>
<path d="M103.421 79.6873C101.558 79.6873 99.8817 79.368 98.3918 78.7294C96.9019 78.0642 95.7309 77.1329 94.8795 75.9355C94.0281 74.738 93.6024 73.341 93.6024 71.7445H98.4718C98.5779 72.9419 99.0436 73.9264 99.8683 74.6981C100.72 75.4697 101.904 75.8556 103.421 75.8556C104.991 75.8556 106.215 75.4831 107.093 74.738C107.971 73.9663 108.41 72.9819 108.41 71.7844C108.41 70.8531 108.131 70.0948 107.572 69.5093C107.04 68.924 106.361 68.4716 105.536 68.1523C104.738 67.833 103.62 67.487 102.184 67.1145C100.374 66.6356 98.8975 66.1566 97.7532 65.6776C96.6356 65.1721 95.6775 64.4004 94.8795 63.3626C94.0808 62.3249 93.6818 60.9413 93.6818 59.2117C93.6818 57.6151 94.0808 56.2182 94.8795 55.0208C95.6775 53.8234 96.7951 52.9053 98.2323 52.2667C99.6688 51.6281 101.332 51.3088 103.221 51.3088C105.909 51.3088 108.104 51.9873 109.807 53.3444C111.537 54.6748 112.494 56.5108 112.681 58.8524H107.652C107.572 57.8413 107.093 56.9765 106.215 56.2581C105.337 55.5396 104.179 55.1804 102.742 55.1804C101.438 55.1804 100.374 55.513 99.5494 56.1782C98.7247 56.8434 98.3117 57.8014 98.3117 59.052C98.3117 59.9035 98.5646 60.6087 99.0703 61.1674C99.6028 61.6996 100.268 62.1253 101.066 62.4447C101.864 62.7639 102.955 63.1099 104.339 63.4824C106.175 63.988 107.665 64.4935 108.809 64.9991C109.98 65.5047 110.964 66.2896 111.763 67.354C112.588 68.3918 113 69.7888 113 71.5449C113 72.9552 112.614 74.2857 111.842 75.5363C111.098 76.7869 109.994 77.7981 108.53 78.5697C107.093 79.3148 105.39 79.6873 103.421 79.6873Z" fill="white"/>
</svg>
