<svg width="201" height="109" viewBox="0 0 201 109" fill="none" xmlns="http://www.w3.org/2000/svg">
<path d="M51.7999 76.9618L36.5153 59.2908V76.9618H30.0378V37.4719H36.5153V55.4838L51.8567 37.4719H59.982L42.8223 57.2452L60.2661 76.9618H51.7999Z" fill="white"/>
<path d="M108.944 84.5333L106.477 82.0981C104.377 83.9813 101.812 84.9229 98.7817 84.9229C97.1149 84.9229 95.643 84.6415 94.3659 84.0787C93.1105 83.4943 92.1364 82.6826 91.4438 81.6436C90.7511 80.5829 90.4048 79.3599 90.4048 77.9746C90.4048 76.4811 90.8269 75.139 91.671 73.9485C92.5152 72.758 93.7599 71.7948 95.4049 71.0588C94.8205 70.3445 94.3984 69.6627 94.1387 69.0133C93.8789 68.3423 93.749 67.628 93.749 66.8704C93.749 65.8314 94.0196 64.9006 94.5608 64.0781C95.1019 63.2339 95.8703 62.5737 96.866 62.0975C97.8834 61.6213 99.0631 61.3832 100.405 61.3832C101.769 61.3832 102.938 61.6429 103.912 62.1624C104.886 62.6819 105.611 63.3746 106.087 64.2404C106.563 65.1062 106.769 66.0695 106.704 67.1301H102.288C102.31 66.4158 102.137 65.8747 101.769 65.5067C101.401 65.1171 100.903 64.9222 100.275 64.9222C99.6691 64.9222 99.1605 65.1062 98.7492 65.4742C98.3596 65.8205 98.1648 66.2751 98.1648 66.8379C98.1648 67.379 98.3271 67.9202 98.6518 68.4613C98.9765 68.9808 99.5068 69.6302 100.243 70.4094L105.957 76.059C106.001 76.0157 106.033 75.9724 106.055 75.9291C106.076 75.8858 106.098 75.8425 106.12 75.7992L107.97 72.7147H112.711L110.438 76.7083C110.005 77.5525 109.54 78.3534 109.042 79.111L114.529 84.5333H108.944ZM98.9115 81.1565C100.686 81.1565 102.256 80.5288 103.619 79.2734L98.0349 73.7537C95.9353 74.6845 94.8854 76.0048 94.8854 77.7149C94.8854 78.6889 95.2534 79.5115 95.9894 80.1825C96.7253 80.8318 97.6994 81.1565 98.9115 81.1565Z" fill="white"/>
<path d="M133.713 67.9076V46.2043C133.713 42.9083 132.177 39.8005 129.559 37.7983L108.395 21.6141C104.601 18.7126 99.333 18.7126 95.5388 21.6141L74.3747 37.7983C71.7565 39.8005 70.2208 42.9083 70.2208 46.2043V67.9076C70.2208 73.7518 74.9585 78.4896 80.8028 78.4896H84.6828C86.4361 78.4896 87.8574 77.0682 87.8574 75.315V74.6095C87.8574 72.8562 86.4361 71.4349 84.6828 71.4349H80.8028C78.8547 71.4349 77.2754 69.8557 77.2754 67.9076V46.2043C77.2754 45.1056 77.7874 44.0697 78.6601 43.4023L99.8241 27.218C101.089 26.2509 102.845 26.2509 104.109 27.218L125.273 43.4023C126.146 44.0697 126.658 45.1056 126.658 46.2043V67.9076C126.658 69.8557 125.079 71.4349 123.131 71.4349H119.251C117.497 71.4349 116.076 72.8562 116.076 74.6095V75.315C116.076 77.0682 117.497 78.4896 119.251 78.4896H123.131C128.975 78.4896 133.713 73.7518 133.713 67.9076Z" fill="white"/>
<path d="M157.335 77.3595C154.684 77.3595 152.297 76.905 150.176 75.9959C148.055 75.0489 146.388 73.7231 145.176 72.0185C143.964 70.3138 143.358 68.3251 143.358 66.0523H150.29C150.441 67.7569 151.104 69.1585 152.278 70.257C153.49 71.3555 155.176 71.9048 157.335 71.9048C159.57 71.9048 161.313 71.3745 162.563 70.3138C163.813 69.2153 164.438 67.8138 164.438 66.1092C164.438 64.7834 164.04 63.7038 163.245 62.8704C162.487 62.0371 161.521 61.3931 160.347 60.9385C159.21 60.484 157.619 59.9915 155.574 59.4612C152.998 58.7794 150.896 58.0975 149.267 57.4157C147.676 56.696 146.312 55.5975 145.176 54.1201C144.039 52.6428 143.471 50.6731 143.471 48.2109C143.471 45.9381 144.039 43.9494 145.176 42.2448C146.312 40.5402 147.903 39.2333 149.949 38.3242C151.994 37.4151 154.362 36.9605 157.051 36.9605C160.877 36.9605 164.002 37.9264 166.427 39.8583C168.889 41.7523 170.252 44.366 170.518 47.6995H163.358C163.245 46.26 162.563 45.0289 161.313 44.0062C160.063 42.9834 158.415 42.472 156.369 42.472C154.513 42.472 152.998 42.9455 151.824 43.8925C150.649 44.8395 150.062 46.2032 150.062 47.9836C150.062 49.1957 150.422 50.1996 151.142 50.995C151.9 51.7526 152.847 52.3587 153.983 52.8133C155.119 53.2678 156.672 53.7603 158.642 54.2906C161.256 55.0103 163.377 55.73 165.006 56.4498C166.673 57.1695 168.074 58.2869 169.211 59.8021C170.385 61.2795 170.972 63.2682 170.972 65.7682C170.972 67.7759 170.423 69.6699 169.324 71.4503C168.264 73.2306 166.692 74.6701 164.608 75.7686C162.563 76.8292 160.138 77.3595 157.335 77.3595Z" fill="white"/>
</svg>
