<svg width="80" height="80" viewBox="0 0 201 109" fill="none" xmlns="http://www.w3.org/2000/svg">
<path d="M52.0409 76.9618L36.7563 59.2908V76.9618H30.2788V37.4719H36.7563V55.4838L52.0977 37.4719H60.223L43.0633 57.2452L60.5071 76.9618H52.0409Z" fill="#2C2C2C"/>
<path d="M109.185 84.5333L106.718 82.0981C104.618 83.9813 102.053 84.9229 99.0227 84.9229C97.356 84.9229 95.8841 84.6415 94.607 84.0787C93.3515 83.4943 92.3775 82.6826 91.6848 81.6436C90.9921 80.5829 90.6458 79.3599 90.6458 77.9746C90.6458 76.4811 91.0679 75.139 91.9121 73.9485C92.7563 72.758 94.0009 71.7948 95.646 71.0588C95.0615 70.3445 94.6394 69.6627 94.3797 69.0133C94.1199 68.3423 93.9901 67.628 93.9901 66.8704C93.9901 65.8314 94.2606 64.9006 94.8018 64.0781C95.3429 63.2339 96.1113 62.5737 97.107 62.0975C98.1244 61.6213 99.3041 61.3832 100.646 61.3832C102.01 61.3832 103.179 61.6429 104.153 62.1624C105.127 62.6819 105.852 63.3746 106.328 64.2404C106.804 65.1062 107.01 66.0695 106.945 67.1301H102.529C102.551 66.4158 102.378 65.8747 102.01 65.5067C101.642 65.1171 101.144 64.9222 100.516 64.9222C99.9102 64.9222 99.4015 65.1062 98.9902 65.4742C98.6006 65.8205 98.4058 66.2751 98.4058 66.8379C98.4058 67.379 98.5681 67.9202 98.8928 68.4613C99.2175 68.9808 99.7478 69.6302 100.484 70.4094L106.198 76.059C106.242 76.0157 106.274 75.9724 106.296 75.9291C106.317 75.8858 106.339 75.8425 106.361 75.7992L108.211 72.7147H112.952L110.679 76.7083C110.246 77.5525 109.781 78.3534 109.283 79.111L114.77 84.5333H109.185ZM99.1526 81.1565C100.928 81.1565 102.497 80.5288 103.861 79.2734L98.2759 73.7537C96.1763 74.6845 95.1265 76.0048 95.1265 77.7149C95.1265 78.6889 95.4944 79.5115 96.2304 80.1825C96.9664 80.8318 97.9404 81.1565 99.1526 81.1565Z" fill="#2C2C2C"/>
<path d="M133.954 67.9076V46.2043C133.954 42.9083 132.418 39.8005 129.8 37.7983L108.636 21.6141C104.842 18.7126 99.574 18.7126 95.7798 21.6141L74.6157 37.7983C71.9976 39.8005 70.4618 42.9083 70.4618 46.2043V67.9076C70.4618 73.7518 75.1995 78.4896 81.0438 78.4896H84.9239C86.6771 78.4896 88.0985 77.0682 88.0985 75.315V74.6095C88.0985 72.8562 86.6771 71.4349 84.9239 71.4349H81.0438C79.0957 71.4349 77.5165 69.8557 77.5165 67.9076V46.2043C77.5165 45.1056 78.0284 44.0697 78.9011 43.4023L100.065 27.218C101.33 26.2509 103.086 26.2509 104.35 27.218L125.515 43.4023C126.387 44.0697 126.899 45.1056 126.899 46.2043V67.9076C126.899 69.8557 125.32 71.4349 123.372 71.4349H119.492C117.738 71.4349 116.317 72.8562 116.317 74.6095V75.315C116.317 77.0682 117.738 78.4896 119.492 78.4896H123.372C129.216 78.4896 133.954 73.7518 133.954 67.9076Z" fill="#2C2C2C"/>
<path d="M157.576 77.3595C154.925 77.3595 152.538 76.905 150.417 75.9959C148.296 75.0489 146.629 73.7231 145.417 72.0185C144.205 70.3138 143.599 68.3251 143.599 66.0523H150.531C150.682 67.7569 151.345 69.1585 152.519 70.257C153.732 71.3555 155.417 71.9048 157.576 71.9048C159.811 71.9048 161.554 71.3745 162.804 70.3138C164.054 69.2153 164.679 67.8138 164.679 66.1092C164.679 64.7834 164.281 63.7038 163.486 62.8704C162.728 62.0371 161.762 61.3931 160.588 60.9385C159.451 60.484 157.86 59.9915 155.815 59.4612C153.239 58.7794 151.137 58.0975 149.508 57.4157C147.917 56.696 146.553 55.5975 145.417 54.1201C144.28 52.6428 143.712 50.6731 143.712 48.2109C143.712 45.9381 144.28 43.9494 145.417 42.2448C146.553 40.5402 148.144 39.2333 150.19 38.3242C152.235 37.4151 154.603 36.9605 157.292 36.9605C161.118 36.9605 164.243 37.9264 166.668 39.8583C169.13 41.7523 170.493 44.366 170.759 47.6995H163.599C163.486 46.26 162.804 45.0289 161.554 44.0062C160.304 42.9834 158.656 42.472 156.61 42.472C154.754 42.472 153.239 42.9455 152.065 43.8925C150.891 44.8395 150.303 46.2032 150.303 47.9836C150.303 49.1957 150.663 50.1996 151.383 50.995C152.141 51.7526 153.088 52.3587 154.224 52.8133C155.36 53.2678 156.913 53.7603 158.883 54.2906C161.497 55.0103 163.618 55.73 165.247 56.4498C166.914 57.1695 168.315 58.2869 169.452 59.8021C170.626 61.2795 171.213 63.2682 171.213 65.7682C171.213 67.7759 170.664 69.6699 169.565 71.4503C168.505 73.2306 166.933 74.6701 164.849 75.7686C162.804 76.8292 160.379 77.3595 157.576 77.3595Z" fill="#2C2C2C"/>
</svg>
